P2
#
10  10
255
255  150  150  150  150  150  150  150  150  150  
150  255  150  150  150  150  150  150  150  150  
150  150  255  150  150  150  150  150  150  150  
150  150  150  255  150  150  150  150  150  150  
150  150  150  150  255  150  150  150  150  150  
150  150  150  150  150  255  150  150  150  150  
150  150  150  150  150  150  255  150  150  150  
150  150  150  150  150  150  150  255  150  150  
150  150  150  150  150  150  150  150  255  150  
150  150  150  150  150  150  150  150  150  255  
